<?xml version="1.0" encoding="UTF-8" standalone="no"?>
<svg
   xmlns:dc="http://purl.org/dc/elements/1.1/"
   xmlns:cc="http://creativecommons.org/ns#"
   xmlns:rdf="http://www.w3.org/1999/02/22-rdf-syntax-ns#"
   xmlns:svg="http://www.w3.org/2000/svg"
   xmlns="http://www.w3.org/2000/svg"
   xmlns:sodipodi="http://sodipodi.sourceforge.net/DTD/sodipodi-0.dtd"
   xmlns:inkscape="http://www.inkscape.org/namespaces/inkscape"
   width="200mm"
   height="100mm"
   version="1.1"
   viewBox="0 0 708.66142 354.33072"
   id="svg3767"
   sodipodi:docname="neuron_is.svg"
   inkscape:version="0.92.3 (2405546, 2018-03-11)">
  <metadata
     id="metadata3773">
    <rdf:RDF>
      <cc:Work
         rdf:about="">
        <dc:format>image/svg+xml</dc:format>
        <dc:type
           rdf:resource="http://purl.org/dc/dcmitype/StillImage" />
        <dc:title></dc:title>
      </cc:Work>
    </rdf:RDF>
  </metadata>
  <defs
     id="defs3771" />
  <sodipodi:namedview
     pagecolor="#ffffff"
     bordercolor="#666666"
     borderopacity="1"
     objecttolerance="10"
     gridtolerance="10"
     guidetolerance="10"
     inkscape:pageopacity="0"
     inkscape:pageshadow="2"
     inkscape:window-width="1920"
     inkscape:window-height="1001"
     id="namedview3769"
     showgrid="false"
     inkscape:zoom="2.2330833"
     inkscape:cx="331.22061"
     inkscape:cy="182.98919"
     inkscape:window-x="-9"
     inkscape:window-y="-9"
     inkscape:window-maximized="1"
     inkscape:current-layer="svg3767" />
  <g
     transform="translate(0 -698.03)"
     id="g3765"
     style="fill:#333333">
    <path
       d="m163.11 716.42c-0.58578 6e-3 -0.65871 1.1952-0.12891 3.6074 0.80506 3.6654 0.70819 3.771-2.7129 2.9453l-3.5469-0.85742 4.5547 4.4883c5.1607 5.0828 12.949 17.33 14.203 22.334 0.67574 2.6965 0.23086 3.732-2.3184 5.4024-1.8108 1.1865-4.9183 1.8956-7.2969 1.6641-3.4387-0.33471-4.1426 0.0186-4.1426 2.084 0 1.9134 3.6116 4.3908 15.625 10.715 22.732 11.967 33.544 23.357 24.359 25.662-1.7265 0.43333-10.305 0.16169-19.062-0.60352-16.331-1.4269-28.747-0.48052-32.291 2.4609-3.3769 2.8026-0.18626 3.6523 13.709 3.6523 18.589 0 41.705 3.0462 45.715 6.0234 3.2201 2.3906 9.988 19.418 10.041 25.262 0.0307 3.3843-2.6962 7.994-6.8086 11.512-5.0803 4.3457-18.05 7.3907-34.557 8.1113-17.77 0.77582-24.963-0.75349-44.23-9.3965-19.637-8.8088-20.985-10.789-21.875-32.123-0.56536-13.557-0.85625-15.03-3.043-15.447-4.1232-0.78765-5.707 3.2163-5.707 14.424 0 8.9027-0.30128 10.385-2.1055 10.385-3.5694 0-13.284-11.454-18.129-21.375-5.3948-11.048-7.6161-13.428-10.391-11.125-2.6179 2.1726-2.3841 3.9337 1.7285 13.004 1.9821 4.3714 3.2477 8.4958 2.8125 9.166-0.43519 0.67017-3.041 1.9382-5.791 2.8184-6.4919 2.0778-14.749 6.2197-15.932 7.9922-0.51241 0.76812 0.0927 2.249 1.3457 3.2949 1.2512 1.0444 3.2559 3.3964 4.4551 5.2266 2.1236 3.241 2.1038 3.3751-0.72071 5.2227-7.0682 4.6236-26.579 10.712-34.461 10.754-2.2344 0.0118-4.0625 0.58398-4.0625 1.2715 0 1.5912-0.17572 1.602 12.936-0.6914 13.003-2.2745 24.064-6.0981 27.996-9.6777 1.5442-1.4058 3.1276-2.2357 3.5195-1.8438 1.4736 1.4736-4.7488 5.6286-14.123 9.4297-10.7 4.3386-21.227 7.2005-31.295 8.5078-3.6248 0.47072-6.8928 1.3445-7.2617 1.9414-0.90344 1.4618 0.88417 1.35 12.604-0.7793 12.436-2.2595 17.71-3.6893 28.547-7.7422 9.0821-3.3965 17.078-10.003 17.078-14.111 0-1.3115 0.5625-2.7333 1.25-3.1582s1.25-1.8525 1.25-3.1738c0-2.8152 4.6454-4.3732 9.4473-3.168 1.7594 0.44158 5.5562 2.9239 8.4375 5.5176 11.828 10.647 27.903 19.977 47.74 27.709 18.372 7.1605 37.717 17.324 41.775 21.945 4.5906 5.2284 4.748 6.8949 1.0371 11.072-4.1584 4.6812-15.65 6.1185-40.938 5.123-25.762-1.0142-61.291-3.978-67.4-5.623-2.5385-0.68354-8.8021-4.3956-13.92-8.25-10.594-7.9785-14.257-9.7172-18.32-8.6973-4.6676 1.1715-3.3263 3.9218 4.9531 10.168 8.9261 6.734 17.188 14.299 17.188 15.738 0 0.53807-3.5156 2.7463-7.8125 4.9062-16.547 8.3179-26.112 16.848-24.27 21.648 1.0677 2.7823 1.8678 2.5612 11.328-3.1445 14.862-8.9634 31.244-16.239 39.904-17.723 4.5492-0.77925 8.6952-0.99426 9.2129-0.47656s-0.58963 3.6652-2.4609 6.9941c-3.845 6.84-4.2616 9.8091-1.5195 10.861 2.9207 1.1208 7.8377-2.8114 12.025-9.6172 2.4241-3.9396 4.9726-6.4838 7.0059-6.9941 4.8444-1.2159 31.53 0.54304 48.971 3.2285 15.717 2.42 21.517 4.8229 22.393 9.2754 0.80742 4.1056-7.2769 15.781-13.977 20.184-8.4313 5.5402-46.818 20.621-52.488 20.621-2.4199 0-8.4607-0.85441-13.424-1.8984-9.9086-2.0843-13.639-1.5956-13.639 1.7832 0 2.8003 3.2845 4.2854 15.469 6.9961 12.037 2.6779 13.068 4.4452 6.1504 10.533-7.7686 6.8372-10.241 14.064-6.0117 17.574 2.6787 2.2231 5.3019 0.7466 7.3398-4.1308 0.9771-2.3385 4.4535-6.4414 7.7266-9.1172s8.8065-7.3501 12.295-10.389c6.1727-5.3767 27.138-16.352 31.238-16.352 2.8999 0 2.5501 2.6884-1.5039 11.59-4.4648 9.8034-8.2658 14.287-18.451 21.766-5.978 4.3893-8.008 6.6169-7.7402 8.4864 0.23733 1.6569 1.4452 2.6492 3.4883 2.8691 3.06 0.3293 4.122-0.2224 15.012-7.8066l5.3457-3.7227 2.0078 3.0645c5.3817 8.2099 9.8642 13.165 12.219 13.508 4.6211 0.67354 4.3524-3.2496-0.84961-12.43-2.742-4.8388-4.9844-10.248-4.9844-12.02s1.8733-6.6441 4.1641-10.826c2.2908-4.1821 5.202-10.416 6.4688-13.854 3.0343-8.2343 16.97-29.585 21.059-32.264 6.5466-4.2895 19.578-1.8668 22.729 4.2266 2.5784 4.986 6.8103 23.254 6.8203 29.443 0.0113 6.6234-2.546 13.781-8.1914 22.928-5.2974 8.5826-5.4105 12.965-0.34765 13.551 2.738 0.3167 4.0283-0.6312 7.2773-5.3535 2.1717-3.1565 5.0596-8.2514 6.418-11.322 1.3584-3.0708 2.9824-5.584 3.6094-5.584 0.62699 0 4.2568 2.3307 8.0664 5.1797 7.9886 5.9743 8.1026 6.511 4.877 22.928-2.3145 11.78-5.4913 21.194-1.3072 20.878 3.3121-5.7351 6.5064-8.0643 6.6275-11.595 0.31328-9.1349 1.9141-13.484 6.1504-16.715 2.289-1.7458 5.2916-3.1757 6.6719-3.1757 2.8541 0 5.1145 2.7235 2.8789 3.4687-2.3105 0.7702-1.7327 3.3503 1.4121 6.3047 2.2063 2.0727 3.2276 2.3661 4.3496 1.2441 1.5447-1.5446 2.6984-1.1278 25.172 9.1895 0.46674-0.4694 0.91981-0.8497 1.3652-1.1465-1.276-0.5423-2.53-1.071-3.7695-1.6035-4.4688-1.9197-10.938-4.6755-14.375-6.125-6.7763-2.8575-10.477-7.874-8.0039-10.854 2.6674-3.2141-0.22331-6.1629-11.236-11.461-15.577-7.4936-21.799-13.263-24.916-23.104-2.828-8.9262-6.4777-24.324-6.4727-27.307 6e-3 -3.893 5.2851-8.6701 14.609-13.217 16.078-9.8945 8.9813-3.8645 16.078-9.8945 4.7436-4.0173 17.909-10.493 21.334-10.494 1.4542-5.4e-4 4.0059 1.07 5.6699 2.3789 2.7079 2.13 6.0393 2.454 31.73 3.084 22.838 0.56002 33.93 1.4796 54.26 4.502 14.054 2.0894 26.598 3.4673 27.873 3.0625 1.2754-0.4048 3.1296-0.0612 4.1211 0.76172 2.2861 1.8973 30.155 7.2733 51.828 9.998 4.4688 0.56183 11.219 1.8571 15 2.8789s8.4759 2.2148 10.434 2.6504c2.043 0.45454 2.8816 0.88967 3.0215 1.9024 0.69338 0.0687 0.7523 0.0654 0.85156 0.10156-0.13013-0.0748 0.2992-0.0111 0.44922-0.0156 0.75203-0.0226 0.72577-0.0189 1.4922-0.0293 0.80536 6e-3 1.6105 0.0139 2.416 0.01 0.72168 0.28379 1.4893 0.47294 2.166 0.85156 0.38508 0.21543 0.65557 0.58956 0.96874 0.90039 0.0753 0.0747 0.14082 0.14989 0.2129 0.22461 1.8141-1.1273 6.16-0.5308 16.816 1.8516 6.4763 1.4479 7.2076 1.3689 10.625-1.127 17.046-7.1776-2.0742-21.77-2.0742-21.77-5.625-2.8072-32.891-7.5282-44.879-7.7695-9.2367-0.18594 2.223-7.1628-19.617-6.3789s16.784 4.4117-4.7578 0.58594-16.875-2.5254-16.875-2.5254c-9.2812-1.3891-18.998-2.2026-21.59-1.8086-2.9477 0.44801-6.0006 0.0502-8.1523-1.0625-7.6202-3.9406-48.223-9.1325-53.307-6.8164-2.1682 0.98791-3.799 0.81252-6.7715-0.72461-3.0138-1.5585-9.3154-2.1952-27.361-2.7695l-23.443-0.74609-4.7363 3.2676-4.7344 3.2695-7.0566-2.4805c-7.6623-2.6931-6.539 1.259-18.58-15.176s-9.6868-8.6213-12.119-14.406c-7.6432-18.178-12.984-22.435-5.707-58.883 2.6167-13.107 2.4865-16.545-0.625-16.545-3.235 0-4.6079 3.3479-8.5332 20.795-4.2158 18.738-5.3226 21.352-8.0742 19.068-0.94004-0.78016-1.709-2.0083-1.709-2.7285s-3.4072-8.2131-7.5703-16.65c-7.2432-14.679-7.4901-15.491-5.75-18.85 2.8789-5.5559 7.463-9.8803 17.047-16.08 4.9004-3.17 8.6965-6.4212 8.4336-7.2227-1.7762-5.4152-16.277 1.9994-28.605 14.627-3.7812 3.8729-7.5741 7.041-8.4297 7.041-0.85553 0-4.0475-1.4581-7.0918-3.2422-4.052-2.3746-5.5332-4.031-5.5332-6.1777 0-1.6128-0.51489-3.2488-1.1426-3.6367-0.62767-0.38793-1.5092-2.8845-1.959-5.5469-0.44981-2.6624-3.279-8.9863-6.2871-14.055-3.0081-5.0684-7.0485-11.879-8.9785-15.135-2.2643-3.8196-3.866-5.7691-4.6191-5.7617zm39.156 57.305c1.6084 0 2.6474 1.4639 3.5449 5 0.69802 2.75 1.1867 4.985 1.0879 4.9648s-2.0306-1.7218-4.2949-3.7812c-4.2256-3.8432-4.3545-6.1836-0.33789-6.1836zm5.8203 11.596c0.0598 0.0139 0.13013 0.0465 0.21289 0.0977 0.66209 0.40919 3.5383 5.6797 6.3906 11.713 7.5237 15.914 8.0516 16.834 10.543 18.346 1.8566 1.1267 2.8016 0.7555 5.2539-2.0644 1.6441-1.8906 3.1846-3.4375 3.4238-3.4375 0.23924 0 0.44699 4.6406 0.46289 10.312 0.0232 8.2932 0.59658 11.414 2.9258 15.938 3.457 6.7138 24.328 31.942 30.973 37.438 8.0259 6.638 13.8 7.6393 50.949 8.8379 18.562 0.59891 34.003 1.1186 34.312 1.1562 0.30938 0.0376-0.0237 0.65454-0.73828 1.3691-0.89905 0.89904-6.6557 0.84692-18.688-0.16601-18.508-1.5582-47.92-0.81535-55.809 1.4082-2.5686 0.72405-6.2944 5.1848-13.059 6.9414s-13.11 8.8542-21.256 13.016-15.389 10.324-15.389 16.584c0 5.9773 6.133 28.697 9.4707 35.08 3.0938 5.9168 3.106 6.0303 0.50586 5.2051-4.9748-1.5789-8.3281 0.30455-10.551 5.9316-1.1566 2.9282-3.3275 7.1492-4.8262 9.3789-5.0942 7.5789-4.7973 4.1088 0.46484-5.4238 6.9008-12.501 7.7088-20.673 3.6914-37.352-3.4409-14.285-5.9642-18.716-12.156-21.346-6.547-2.781-17.574-1.9406-22.191 1.6914-4.9495 3.8933-13.89 17.714-19.971 30.875-6.7111 14.525-9.1222 19.033-10.709 20.014-0.70887 0.4381-0.15091-2.1973 1.2402-5.8574 2.9794-7.839 3.2841-14.224 0.72656-15.205-4.5283-1.7377-29.996 10.29-39.078 18.455-3.4982 3.1452-6.6303 5.7188-6.959 5.7188-0.32868 0-0.91779-1.6065-1.3106-3.5703-0.49031-2.4516-1.9056-4.0634-4.5156-5.1445-5.2407-2.1708-3.6362-3.7852 3.7617-3.7852 4.6567 0 10.461-1.7442 23.363-7.0234 30.595-12.519 36.304-16.468 41.809-28.912 4.6872-10.596 0.2642-16.378-14.496-18.947-12.139-2.113-42.734-5.1172-52.111-5.1172-7.7606 0-8.9808 0.35911-12.883 3.7852-3.8945 3.4195-4.2426 3.5215-3.5996 1.0625 0.9456-3.6159-2.5551-6.0977-8.6016-6.0977-6.8616 0-23.796 5.7056-36.033 12.139-6.0208 3.1652-9.3049 4.4287-7.541 2.9024 1.7188-1.4873 6.4442-4.3279 10.502-6.3125 7.526-3.6809 13.248-7.8887 13.248-9.7441 0-0.5683-2.1094-3.5099-4.6875-6.5371l-4.6875-5.5039 4.5879 2.8203c2.5244 1.5512 8.7118 3.5849 13.75 4.5195 22.778 4.2255 88.827 6.5112 99.383 3.4394 5.9907-1.7433 11.654-7.6817 11.654-12.221 0-6.0313-9.2142-13.819-25.871-21.869-8.4593-4.0882-15.379-7.6497-15.379-7.9141s3.2344 0.37543 7.1875 1.4219c8.671 2.2954 34.563 1.3898 46.141-1.6133 13.056-3.3865 21.656-11.524 21.666-20.502 3e-3 -2.393-1.7853-9.3538-3.9727-15.469-3.1885-8.9136-4.7375-11.582-7.8125-13.457-2.1095-1.2864-4.8184-2.3408-6.0215-2.3438-3.1772-7e-3 -2.6795-1.8793 0.9375-3.5273 3.382-1.5409 4.0297-4.9514 1.75-9.2109-0.66158-1.2362-0.80325-2.0195-0.38477-1.9219zm-124.22 22.994c0.67701 0.0932 1.6252 1.2076 3.5742 3.6602 5.9324 7.4649 13.014 12.089 17.127 11.186 3.1274-0.68688 3.6582-0.30698 5.0801 3.625 0.8735 2.4156 3.2877 6.0904 5.3633 8.166s3.2549 3.7734 2.6211 3.7734c-1.5944 0-14.319-8.6742-23.801-16.225l-7.8848-6.2793-8.6777 0.80664c-4.7723 0.44354-8.6758 0.49073-8.6758 0.10351 0-0.38723 2.8177-1.6412 6.2617-2.7852 3.444-1.1439 6.8544-3.1891 7.5801-4.5449 0.54255-1.0138 0.90508-1.5588 1.4316-1.4863zm138.88 54.277c-2.2019-7e-3 -4.1032 0.96453-6.0898 2.9512-5.8453 5.8453-2.9241 18.245 5.6816 24.119 2.2662 1.5469 5.7247 2.8125 7.6856 2.8125 12.212 0 11.129-21.628-1.4082-28.111-2.2618-1.1696-4.1565-1.7663-5.8691-1.7715zm0.84765 6.3496c5.0541 0.0525 11.877 11.521 9.1524 15.84-1.5899 2.5205-2.962 2.7898-6.2207 1.2188-6.3952-3.0833-9.0302-16.226-3.4141-17.027 0.15898-0.0227 0.31939-0.0329 0.48242-0.0312zm-175.15 4.7832c0.6875 0 1.5985 0.5625 2.0234 1.25 0.42489 0.6875 0.20898 1.25-0.47852 1.25s-1.5966-0.5625-2.0215-1.25-0.21094-1.25 0.47656-1.25zm260.32 0.12695c3.5679 0.0134 7.7953 0.1301 12.703 0.35157 17.807 0.80354 23.375 1.8919 23.375 4.5664 0 0.66332-0.42187 1.083-0.9375 0.9336-0.51562-0.14936-11.861-0.57124-25.211-0.9375-17.175-0.47118-24.417-1.1014-24.768-2.1562-0.62959-1.8953 4.1343-2.7981 14.838-2.7578zm50.523 3.4121c3.0066-0.0354 7.6446 0.27087 13.422 0.90625 22.076 2.428 32.133 4.9633 32.133 8.0996 0 1.6586-4.5671 1.3606-20.625-1.3438-7.5625-1.2736-17.274-2.6942-21.58-3.1562-8.319-0.89257-10.52-2.1921-6.8926-4.0703 0.52256-0.27059 1.739-0.41431 3.543-0.43555zm164.83 38.262c-15.069-3.1125-28.943-5.9869-30.834-6.3867-1.8906-0.3998-3.4375-1.2564-3.4375-1.9043s0.98438-0.88452 2.1875-0.52539c23.999 2.6992 44.416 6.7975 32.084 8.8164zm-166.77-30.389c0.5664 0 1.1328 0.0864 1.5625 0.25977 0.85938 0.34676 0.15625 0.63086-1.5625 0.63086s-2.4219-0.2841-1.5625-0.63086c0.42969-0.17338 0.99609-0.25977 1.5625-0.25977zm62.883 0.73047c3.3522-0.0188 7.9058 0.40141 13.504 1.2656 13.415 2.071 15.572 2.9419 14.459 5.8418-0.70143 1.8279-5.5432 2.5642-8.9707 1.3652-0.6875-0.2405-6.7344-1.3874-13.438-2.5488-7.9012-1.369-12.188-2.6694-12.188-3.6973 0-1.4551 2.3228-2.2025 6.6328-2.2266zm-112.09 1.666c14.609-0.10321 35.571 1.4788 35.107 2.8867-0.5537 1.682-6.228 1.8437-30.898 0.88477-18.856-0.73292-24.755-2.8665-10-3.6172 1.7467-0.0889 3.704-0.13955 5.791-0.15429zm47.262 2.6308c10.559 0.17904 48.197 5.6008 48.197 7.3106 0 1.9044-3.2207 2.0606-12.5 0.60742-5.1562-0.80747-15.375-2.1952-22.705-3.084-13.303-1.6129-17.423-2.813-15.672-4.5644 0.21456-0.21456 1.1712-0.29511 2.6797-0.26954zm103.8 2.8887c2.7445 0.0753 7.1726 2.9616 6.2363 4.4766-0.40623 0.6573-1.1265 1.1108-1.6016 1.0078-0.47505-0.10301-2.4102-0.42063-4.3008-0.70703-3.7793-0.57252-4.6222-3.3834-1.3867-4.625 0.30274-0.11617 0.66066-0.1631 1.0527-0.15234zm20.053 3.2383c5.8674-0.0361 15.131 1.0126 25.201 3.002 15.346 3.0317 20.393 4.7582 20.393 6.9766 0 0.66332-2.1094 1.1452-4.6875 1.0703-5.2124-0.15139-46.661-7.046-47.52-7.9043-0.29933-0.29933-0.17387-1.1437 0.27929-1.877 0.51479-0.83294 2.8135-1.2459 6.334-1.2676zm-65.338 1.8711c1.2486 0.0236 2.9811 0.26894 5.3262 0.7168 3.4263 0.65436 14.314 2.5494 24.193 4.2109 9.8798 1.6615 18.233 3.2895 18.562 3.6191 0.32967 0.32965 0.22855 1.2004-0.22461 1.9336-0.91699 1.4838-2.4816 1.4901-10.676 0.0488-3.0938-0.54416-12.375-2.1742-20.625-3.623-17.183-3.0177-19.375-3.5953-19.375-5.1035 0-1.2676 0.73737-1.8421 2.8184-1.8027zm-317.04 8.5176c0.0695 0.0104 0.13122 0.0414 0.1836 0.0937 0.419 0.419-0.25359 1.7332-1.4961 2.9199-2.1597 2.0628-2.1931 2.0294-0.76171-0.76172 0.72055-1.405 1.5877-2.3248 2.0742-2.252zm375.31 2.0449c2.9418 0 47.805 9.7266 48.619 10.541 0.2985 0.2985 0.17191 1.1437-0.28125 1.877-0.45317 0.73323-1.2124 1.2666-1.6875 1.1856-1.3323-0.22738-39.063-8.3918-43.895-9.498-4.7671-1.0916-6.79-4.1055-2.7559-4.1055zm17.145 17.307c2e-3 0.19322 0.0101 0.38538 0.0215 0.57813 0.15726-0.18264 0.30578-0.37247 0.45118-0.56641-0.16179 4e-3 -0.31831-1e-3 -0.47266-0.0117zm-244.95 40.234c0.77519-0.0219 2.1109 0.80273 2.9668 1.834 1.976 2.3809 1.1679 2.3987-1.9492 0.041-1.3345-1.0094-1.7928-1.8531-1.0176-1.875zm-85.455 5.7246c0.67095-0.10795 0.87774 0.98085 1.3379 3.8164 0.87694 5.4039 0.76413 5.6766-1.7031 4.1289-1.0113-0.63443-2.8707-0.83256-4.1328-0.43945-1.9137 0.59607-2.09 0.33107-1.0547-1.6035 0.68282-1.2759 2.3423-3.3158 3.6875-4.5332 0.89259-0.80779 1.4627-1.3044 1.8652-1.3691zm-50.098 5.5918c0.17808-8e-3 0.32664 0.0337 0.43164 0.13868 0.33135 0.33135-0.52703 1.6249-1.9062 2.873-1.3792 1.2482-2.5059 1.6884-2.5059 0.97852 0-1.3762 2.7339-3.9347 3.9805-3.9902zm32.686 10.447c0.3801 0.019 0.47293 0.2681 0.19922 0.711-0.42002 0.6796-1.2925 1.2344-1.9394 1.2344-1.798 0-1.4019-0.8956 0.76367-1.7266 0.41712-0.1601 0.74851-0.2304 0.97656-0.2188zm445.86-186.79c-2.6479 0.1021-7.9154 4.8043-14.485 13.254-9.9662 12.819-10.211 13.687-10.239 35.925-0.0279 20.102-0.8494 23.863-6.9624 31.886-3.8121 5.0028-9.6141 10.57-12.901 12.371-4.1282 1.7775-19.153 4.448-23.327 6.185 4.5069-0.38648 1.0387 3.4338 5.5749 3.0422 21.421-6.2604 28.174-11.662 32.674-16.759 6.8974-7.8118 8.559-12.487 10.58-29.79 1.3186-11.289 2.5939-18.005 2.826-14.92 0.52772 7.024 3.0134 8.6373 8.8874 5.7477 3.233-1.5904 2.8087-0.36064-1.4471 4.1572-3.3236 3.5281-6.9282 11.649-8.0136 18.051-1.3332 7.8623-4.8332 14.763-10.771 21.249-16.787 18.336 0.95773 13.999 46.621-11.386 9.2319-5.1321 24.096-11.565 33.024-14.298 8.9276-2.7326 19.546-6.6981 23.604-8.8108l7.3857-3.8374-7.3857 4.8472c-4.0579 2.6656-15.33 7.5855-25.051 10.932-12.014 4.1355-18.59 7.6966-20.546 11.125-3.9551 6.9326 0.74121 8.376 27.891 8.5668 12.174 0.0858 24.795 0.9199 28.041 1.8598 3.8866 1.1251-7.8823 1.4736-34.457 1.0182l-40.355-0.69004-13.188 6.5892c-7.2503 3.6225-17.365 7.9973-22.485 9.7281-11.658 3.9413-10.182 6.0255 14.799 20.752 41.071 24.212 72.182 44.324 68.56 44.324-2.6054 0-3.9436 2.8131-4.1092 8.6426l-0.24535 8.6425-4.2321-10.788c-5.022-12.798-21.969-27.363-40.396-34.713-6.8352-2.7267-17.254-8.133-23.154-12.017-10.086-6.6406-20.259-9.2886-20.259-5.268 0 0.9894 2.4871 7.7477 5.529 15.013 3.042 7.2652 7.759 19.445 10.485 27.064 2.7256 7.6185 7.4782 16.754 10.567 20.306 4.8776 5.6098 5.0566 6.7415 1.3242 8.6509-3.528 1.8049-4.3003 1.5245-4.3003-1.5905 0-2.0866-2.4842-7.7154-5.5154-12.505-3.0313-4.7898-7.7851-16.481-10.567-25.987-5.9704-20.403-13.214-31.516-22.744-34.882-4.7863-1.3587-9.6002-2.6709-14.416-3.9889 8e-5 1.2536-1.2e-4 2.5081 0 3.7616v0.75738l9.9792 2.2319 8.7785 5.0558c4.5113 4.7741 9.423 14.51 12.259 24.329 2.6015 9.0051 7.2326 20.879 10.293 26.382 3.061 5.5031 6.9893 15.882 8.7372 23.067 3.7309 15.335 6.7161 20.75 13.283 24.11 7.4046 3.7881 9.2138 0.7627 3.7543-6.2947-6.3966-8.2685-9.7549-20.87-5.5563-20.87 1.7277 0 6.8735 4.2984 11.44 9.5514 5.7778 6.646 10.377 9.7268 15.113 10.14l6.8123 0.5975-7.3584-8.9371c-4.0424-4.9174-12.156-12.825-18.034-17.571-13.311-10.749-13.818-11.604-23.604-39.182-4.4101-12.428-8.7095-23.877-9.5426-25.44-0.8332-1.5629 3.3582 0.22491 9.3106 3.9636 5.9524 3.7387 16.78 9.3188 24.055 12.404 17.62 7.4728 35.976 22.067 38.294 30.447 4.0293 14.571 7.5254 19.966 17.72 27.308 7.0359 5.0669 13.004 7.6327 17.747 7.6327 3.9316 0 7.1536-0.4906 7.1536-1.094s-5.8013-5.0718-12.887-9.9301c-9.117-6.2507-13.459-11.061-14.853-16.435-1.0838-4.1772-1.4272-7.9227-0.76453-8.3312 0.66262-0.40846 6.5844 0.58291 13.16 2.2048 12.699 3.1323 24.52 3.0308 26.253-0.21887 0.57597-1.0808-8.4474-4.3148-20.055-7.1951-18.62-4.6207-22.974-6.687-36.997-17.521-8.7414-6.7533-21.706-14.748-28.819-17.765-12.038-5.1055-37.188-21.057-37.188-23.588 0-0.61683 5.6476-3.342 12.546-6.059 6.8985-2.717 15.86-6.5282 19.918-8.4659 6.8306-3.2616 10.228-3.4084 45.747-2.0449 21.101 0.80998 42.146 2.075 46.771 2.8107 13.73 2.1841 8.8-4.7615-6.826-9.6187-10.293-3.1996-18.183-4.0898-36.15-4.0898-30.861 0-31.146-4.3324-0.91469-13.667 21.463-6.6267 42.954-23.266 35.768-27.695-1.0439-0.64354-8.1772 2.5868-15.85 7.1783-7.6727 4.5915-20.842 10.462-29.27 13.052-8.4275 2.5897-18.383 6.5611-22.13 8.8277-11.014 6.6637-47.687 25.001-48.724 24.362-0.52354-0.32272 1.5956-4.1935 4.7235-8.6005 3.1279-4.4071 6.6376-12.8 7.7953-18.657 2.3923-12.102 11.236-23.105 30.13-37.507 7.7878-5.9361 11.644-10.242 9.5563-10.671-6.5079-1.3372-18.438 4.1779-28.041 12.968-7.3314 6.7106-9.9818 8.05-11.399 5.7729-3.5579-5.7151-1.787-13.214 5.529-23.411 4.058-5.6562 7.3857-11.487 7.3857-12.96 0-1.93-0.66683-2.8404-1.8703-2.7939zm74.171 172.99c1.6232 0 4.9372 0.79732 7.372 1.7672 2.4348 0.96993 3.1112 1.7588 1.4881 1.7588-1.6232 0-4.9509-0.78886-7.3857-1.7588-2.4348-0.96993-3.0976-1.7672-1.4744-1.7672zm-16.232 21.77c0.15241-0.094 1.3456 0.4591 3.686 1.5905 2.8405 1.3733 5.174 2.8032 5.174 3.181 0 1.4973-2.4245 0.5394-6.2799-2.4909-1.8355-1.4427-2.7325-2.1867-2.5802-2.2806z"
       fill="#606060"
       id="path3763"
       style="fill:#333333" />
  </g>
  <text
     xml:space="preserve"
     style="font-style:normal;font-weight:normal;font-size:15px;line-height:1.25;font-family:sans-serif;letter-spacing:0px;word-spacing:0px;fill:#000000;fill-opacity:1;stroke:none;stroke-width:0.9375"
     x="26.029034"
     y="54.996826"
     id="text3777"><tspan
       sodipodi:role="line"
       id="tspan3775"
       x="26.029034"
       y="54.996826"
       style="font-size:15px;stroke-width:0.9375">Dendrit</tspan></text>
  <text
     xml:space="preserve"
     style="font-style:normal;font-weight:normal;font-size:15px;line-height:1.25;font-family:sans-serif;letter-spacing:0px;word-spacing:0px;fill:#000000;fill-opacity:1;stroke:none;stroke-width:0.9375"
     x="268.51477"
     y="60.26141"
     id="text3777-3"><tspan
       sodipodi:role="line"
       x="268.51477"
       y="60.26141"
       style="font-size:15px;stroke-width:0.9375"
       id="tspan3799">Soma</tspan></text>
  <text
     xml:space="preserve"
     style="font-style:normal;font-weight:normal;font-size:15px;line-height:1.25;font-family:sans-serif;letter-spacing:0px;word-spacing:0px;fill:#000000;fill-opacity:1;stroke:none;stroke-width:0.9375"
     x="297.42914"
     y="131.89734"
     id="text3777-3-7"><tspan
       sodipodi:role="line"
       x="297.42914"
       y="131.89734"
       style="font-size:15px;stroke-width:0.9375"
       id="tspan3799-5">Axon</tspan></text>
  <text
     xml:space="preserve"
     style="font-style:normal;font-weight:normal;font-size:15px;line-height:1.25;font-family:sans-serif;letter-spacing:0px;word-spacing:0px;fill:#000000;fill-opacity:1;stroke:none;stroke-width:0.9375"
     x="252.14171"
     y="254.63951"
     id="text3777-35"><tspan
       sodipodi:role="line"
       id="tspan3775-6"
       x="252.14171"
       y="254.63951"
       style="font-size:15px;stroke-width:0.9375">Zellkern</tspan></text>
  <path
     style="fill:none;stroke:#000000;stroke-width:0.9375px;stroke-linecap:butt;stroke-linejoin:miter;stroke-opacity:1"
     d="M 54.157183,58.355414 75.987984,92.780909"
     id="path3841"
     inkscape:connector-curvature="0" />
  <path
     style="fill:none;stroke:#000000;stroke-width:0.9375px;stroke-linecap:butt;stroke-linejoin:miter;stroke-opacity:1"
     d="M 290.09777,62.973468 240.55865,154.07509"
     id="path3843"
     inkscape:connector-curvature="0" />
  <path
     style="fill:none;stroke:#000000;stroke-width:0.84531295px;stroke-linecap:butt;stroke-linejoin:miter;stroke-opacity:1"
     d="m 314.74403,135.57305 28.79459,47.49965"
     id="path3845"
     inkscape:connector-curvature="0" />
  <path
     style="fill:none;stroke:#000000;stroke-width:0.9375px;stroke-linecap:butt;stroke-linejoin:miter;stroke-opacity:1"
     d="m 226.28466,179.6843 53.73736,57.93559"
     id="path3867"
     inkscape:connector-curvature="0" />
</svg>
