<?xml version="1.0" encoding="utf-8"?>
<!-- Generator: Adobe Illustrator 22.1.0, SVG Export Plug-In . SVG Version: 6.00 Build 0)  -->
<svg version="1.1" id="Ebene_1" xmlns="http://www.w3.org/2000/svg" xmlns:xlink="http://www.w3.org/1999/xlink" x="0px" y="0px"
	 viewBox="0 0 500 500" style="enable-background:new 0 0 500 500;" xml:space="preserve">
<style type="text/css">
	.st0{clip-path:url(#SVGID_2_);fill:#F2F2F2;}
	.st1{clip-path:url(#SVGID_2_);}
	.st2{enable-background:new    ;}
	.st3{clip-path:url(#SVGID_4_);}
	.st4{clip-path:url(#SVGID_4_);fill:#C49566;}
	.st5{clip-path:url(#SVGID_4_);fill:#8477C7;}
	.st6{clip-path:url(#SVGID_4_);fill:none;stroke:#000000;stroke-width:1.5041;}
	.st7{display:none;clip-path:url(#SVGID_2_);}
	.st8{display:inline;enable-background:new    ;}
	.st9{clip-path:url(#SVGID_6_);}
	.st10{font-family:'Verdana';}
	.st11{font-size:13.462px;}
	.st12{font-family:'Verdana-Bold';}
	.st13{clip-path:url(#SVGID_6_);fill:none;stroke:#000000;stroke-width:1.2621;}
	.st14{clip-path:url(#SVGID_6_);fill:none;stroke:#000000;stroke-width:0.8589;}
	.st15{clip-path:url(#SVGID_6_);fill:none;stroke:#000000;stroke-width:0.7932;}
	.st16{clip-path:url(#SVGID_6_);fill-rule:evenodd;clip-rule:evenodd;}
	.st17{clip-path:url(#SVGID_6_);fill:none;stroke:#000000;stroke-width:0.8461;}
	.st18{clip-path:url(#SVGID_6_);fill:none;stroke:#000000;stroke-width:0.8414;}
	.st19{clip-path:url(#SVGID_6_);fill:none;stroke:#000000;stroke-width:0.8975;}
	.st20{display:inline;fill:#EC6265;}
	.st21{display:inline;}
	.st22{clip-path:url(#SVGID_8_);fill:none;stroke:#1D1D1B;stroke-width:0.9075;stroke-miterlimit:10;}
	.st23{display:inline;fill:#1D1D1B;}
	.st24{font-family:'IEAAAA+CMSS8';}
	.st25{font-size:15.9009px;}
	.st26{display:inline;fill:none;stroke:#1D1D1B;stroke-width:0.9075;stroke-miterlimit:10;}
	.st27{display:inline;fill:none;stroke:#1D1D1B;stroke-width:3.4064;stroke-miterlimit:10;}
	.st28{letter-spacing:-1;}
	.st29{display:inline;fill:#58B579;}
	.st30{clip-path:url(#SVGID_10_);fill:none;stroke:#1D1D1B;stroke-width:0.9075;stroke-miterlimit:10;}
	.st31{display:inline;fill:#668DC9;}
	.st32{clip-path:url(#SVGID_12_);fill:none;stroke:#1D1D1B;stroke-width:0.9075;stroke-miterlimit:10;}
	.st33{clip-path:url(#SVGID_14_);fill:none;stroke:#1D1D1B;stroke-width:0.9075;stroke-miterlimit:10;}
	.st34{display:inline;fill:none;stroke:#EC6265;stroke-width:2.7269;stroke-miterlimit:10;}
	.st35{display:inline;fill:none;stroke:#EC6265;stroke-width:2.7302;stroke-miterlimit:10;}
	.st36{display:inline;fill:none;stroke:#EC6265;stroke-width:2.7272;stroke-miterlimit:10;}
	.st37{display:inline;fill:none;stroke:#EC6265;stroke-width:2.727;stroke-miterlimit:10;}
	.st38{display:inline;fill:none;stroke:#EC6265;stroke-width:2.7304;stroke-miterlimit:10;}
	.st39{display:inline;fill:none;stroke:#EC6265;stroke-width:2.7298;stroke-miterlimit:10;}
	.st40{display:inline;fill:none;stroke:#EC6265;stroke-width:2.7322;stroke-miterlimit:10;}
	.st41{display:inline;fill:none;stroke:#668DC9;stroke-width:2.7269;stroke-miterlimit:10;stroke-dasharray:6.815,6.815;}
	.st42{display:inline;fill:none;stroke:#668DC9;stroke-width:2.2709;stroke-miterlimit:10;}
	.st43{display:inline;fill:none;stroke:#668DC9;stroke-width:2.2723;stroke-miterlimit:10;}
	.st44{display:inline;fill:none;stroke:#58B579;stroke-width:2.7269;stroke-miterlimit:10;}
	.st45{display:inline;fill:none;stroke:#58B579;stroke-width:2.4237;stroke-miterlimit:10;}
	.st46{display:inline;fill:none;stroke:#58B579;stroke-width:2.4295;stroke-miterlimit:10;}
	.st47{display:inline;fill:none;stroke:#58B579;stroke-width:2.4267;stroke-miterlimit:10;}
	.st48{display:inline;fill:none;stroke:#668DC9;stroke-width:2.7269;stroke-miterlimit:10;}
	.st49{display:inline;fill:none;stroke:#668DC9;stroke-width:2.7392;stroke-miterlimit:10;}
	.st50{display:inline;fill:none;stroke:#668DC9;stroke-width:2.7285;stroke-miterlimit:10;}
	.st51{display:inline;fill:none;stroke:#58B579;stroke-width:2.4331;stroke-miterlimit:10;}
	.st52{display:inline;fill:none;stroke:#58B579;stroke-width:2.4314;stroke-miterlimit:10;}
	.st53{display:inline;fill:none;stroke:#EC6265;stroke-width:2.7286;stroke-miterlimit:10;}
	.st54{display:inline;fill:none;stroke:#EC6265;stroke-width:2.7356;stroke-miterlimit:10;}
	.st55{display:inline;fill:none;stroke:#EC6265;stroke-width:2.7276;stroke-miterlimit:10;}
	.st56{display:inline;fill:none;stroke:#EC6265;stroke-width:2.7333;stroke-miterlimit:10;}
	.st57{display:inline;fill:none;stroke:#EC6265;stroke-width:2.7335;stroke-miterlimit:10;}
	.st58{display:inline;fill:none;stroke:#668DC9;stroke-width:2.7339;stroke-miterlimit:10;}
</style>
<g>
	<defs>
		<circle id="SVGID_1_" cx="250.5" cy="249.5" r="242"/>
	</defs>
	<clipPath id="SVGID_2_">
		<use xlink:href="#SVGID_1_"  style="overflow:visible;"/>
	</clipPath>
	<rect x="-0.5" y="-0.5" class="st0" width="500" height="500"/>
	<g class="st1">
		<g class="st2">
			<g>
				<defs>
					<rect id="SVGID_3_" x="-75" y="151.2" width="647" height="242.6"/>
				</defs>
				<clipPath id="SVGID_4_">
					<use xlink:href="#SVGID_3_"  style="overflow:visible;"/>
				</clipPath>
				<rect x="228.3" y="330" class="st3" width="49.3" height="29.3"/>
				<rect x="247.6" y="218.8" class="st4" width="10.2" height="124.1"/>
				<path class="st5" d="M257.5,337.8c0,2.6-2.1,4.8-4.8,4.8s-4.8-2.1-4.8-4.8c0-2.6,2.1-4.8,4.8-4.8S257.5,335.2,257.5,337.8z"/>
				<line class="st6" x1="-37.8" y1="343.7" x2="531.4" y2="343.7"/>
			</g>
		</g>
	</g>
	<g class="st7">
		<g class="st8">
			<g>
				<defs>
					<rect id="SVGID_5_" x="-67" y="130" width="636" height="238.5"/>
				</defs>
				<clipPath id="SVGID_6_">
					<use xlink:href="#SVGID_5_"  style="overflow:visible;"/>
				</clipPath>
				<g class="st9">
					<text transform="matrix(1 0 0 1 101.2939 357.9238)" class="st10 st11">Belohnung r</text>
				</g>
				<g class="st9">
					<text transform="matrix(1 0 0 1 59.4219 265.6709)"><tspan x="0" y="0" class="st10 st11">Obser</tspan><tspan x="39.8" y="0" class="st10 st11">v</tspan><tspan x="47.5" y="0" class="st10 st11">ati</tspan><tspan x="64.6" y="0" class="st10 st11">o</tspan><tspan x="72.8" y="0" class="st10 st11">n </tspan></text>
				</g>
				<g class="st9">
					<text transform="matrix(1 0 0 1 145.3633 265.6709)" class="st12 st11">o</text>
				</g>
				<g class="st9">
					<text transform="matrix(1 0 0 1 233.9502 343.957)" class="st10 st11">Agent</text>
				</g>
				<g class="st9">
					<text transform="matrix(1 0 0 1 223.2041 167.8369)"><tspan x="0" y="0" class="st10 st11">U</tspan><tspan x="9.9" y="0" class="st10 st11">m</tspan><tspan x="22.9" y="0" class="st10 st11">welt</tspan></text>
				</g>
				<g class="st9">
					<text transform="matrix(1 0 0 1 435.3564 252.502)" class="st10 st11">Aktion a</text>
				</g>
				<rect x="189.3" y="141.5" class="st13" width="119.9" height="43.7"/>
				<g class="st9">
					<text transform="matrix(1 0 0 1 108.8799 322.375)" class="st10 st11">Zustand </text>
				</g>
				<g class="st9">
					<text transform="matrix(1 0 0 1 168.6104 322.375)" class="st12 st11">x</text>
				</g>
				<g class="st9">
					<text transform="matrix(1 0 0 1 18.4863 225.9014)"><tspan x="0" y="0" class="st10 st11">Interp</tspan><tspan x="41.6" y="0" class="st10 st11">r</tspan><tspan x="47.4" y="0" class="st10 st11">eter</tspan></text>
				</g>
				<rect x="15.9" y="206.3" class="st14" width="80.2" height="30.3"/>
				<polyline class="st15" points="189.4,162.4 56.5,162.4 56.5,201.6 				"/>
				<polygon class="st16" points="56.5,205.3 53.3,199.8 59.7,199.8 				"/>
				<polygon class="st17" points="56.5,205.3 53.3,199.8 59.7,199.8 				"/>
				<polygon class="st13" points="289.9,355.8 216.4,355.8 234.8,323.9 253.2,292.1 271.5,323.9 				"/>
				<polyline class="st18" points="56.6,236.4 56.6,309.4 212.2,309.4 				"/>
				<polygon class="st16" points="216.1,309.4 210.3,312.7 210.3,306 				"/>
				<polygon class="st19" points="216.1,309.4 210.3,312.7 210.3,306 				"/>
				<polyline class="st18" points="292.8,324.8 432.9,324.8 432.9,163.4 313.5,163.4 				"/>
				<polygon class="st16" points="309.7,163.4 315.5,160 315.5,166.7 				"/>
				<polygon class="st19" points="309.7,163.4 315.5,160 315.5,166.7 				"/>
				<polyline class="st18" points="56.6,309.4 56.6,344.5 211.7,344.5 				"/>
				<polygon class="st16" points="215.6,344.5 209.7,347.9 209.7,341.2 				"/>
				<polygon class="st19" points="215.6,344.5 209.7,347.9 209.7,341.2 				"/>
				<path class="st9" d="M59.3,309.3c0,1.5-1.2,2.7-2.7,2.7s-2.7-1.2-2.7-2.7s1.2-2.7,2.7-2.7S59.3,307.8,59.3,309.3z"/>
			</g>
		</g>
	</g>
	<g class="st7">
		<polygon class="st20" points="70.7,198.6 101.5,145.1 39.8,145.1 		"/>
		<g class="st21">
			<defs>
				<rect id="SVGID_7_" x="39" y="51" width="421" height="398.1"/>
			</defs>
			<clipPath id="SVGID_8_">
				<use xlink:href="#SVGID_7_"  style="overflow:visible;"/>
			</clipPath>
			<polygon class="st22" points="70.7,198.6 101.5,145.1 39.8,145.1 			"/>
		</g>
		<text transform="matrix(1 0 0 1 53.5117 168.4336)" class="st23 st24 st25">PV</text>
		<text transform="matrix(1 0 0 1 75.5605 168.4336)" class="st23 st24 st25">D</text>
		<polygon class="st20" points="167.6,199.2 199,144.8 136.1,144.8 		"/>
		<polygon class="st26" points="167.6,199.2 199,144.8 136.1,144.8 		"/>
		<text transform="matrix(1 0 0 1 150.2109 168.4336)" class="st23 st24 st25">PL</text>
		<text transform="matrix(1 0 0 1 170.2051 168.4336)" class="st23 st24 st25">M</text>
		<path class="st20" d="M289.3,162.9c0-13.6-11.1-24.7-24.7-24.7c-13.6,0-24.7,11.1-24.7,24.7c0,13.6,11.1,24.7,24.7,24.7
			C278.2,187.6,289.3,176.6,289.3,162.9L289.3,162.9z"/>
		<path class="st27" d="M289.3,162.9c0-13.6-11.1-24.7-24.7-24.7c-13.6,0-24.7,11.1-24.7,24.7c0,13.6,11.1,24.7,24.7,24.7
			C278.2,187.6,289.3,176.6,289.3,162.9L289.3,162.9z"/>
		<text transform="matrix(1 0 0 1 249.2734 168.4336)" class="st23 st24 st25 st28">AV</text>
		<text transform="matrix(1 0 0 1 268.5234 168.4336)" class="st23 st24 st25">A</text>
		<path class="st29" d="M387.2,162.9c0-14.2-11.5-25.7-25.7-25.7s-25.7,11.5-25.7,25.7c0,14.2,11.5,25.7,25.7,25.7
			S387.2,177.1,387.2,162.9L387.2,162.9z"/>
		<path class="st26" d="M387.2,162.9c0-14.2-11.5-25.7-25.7-25.7s-25.7,11.5-25.7,25.7c0,14.2,11.5,25.7,25.7,25.7
			S387.2,177.1,387.2,162.9L387.2,162.9z"/>
		<text transform="matrix(1 0 0 1 345.0605 168.4336)" class="st23 st24 st25 st28">AV</text>
		<text transform="matrix(1 0 0 1 365.6992 168.4336)" class="st23 st24 st25">D</text>
		<path class="st29" d="M180.1,266.3c0-14-11.4-25.4-25.4-25.4c-14,0-25.4,11.4-25.4,25.4c0,14,11.4,25.4,25.4,25.4
			C168.7,291.8,180.1,280.4,180.1,266.3L180.1,266.3z"/>
		<path class="st26" d="M180.1,266.3c0-14-11.4-25.4-25.4-25.4c-14,0-25.4,11.4-25.4,25.4c0,14,11.4,25.4,25.4,25.4
			C168.7,291.8,180.1,280.4,180.1,266.3L180.1,266.3z"/>
		<text transform="matrix(1 0 0 1 138.4707 271.832)" class="st23 st24 st25">PV</text>
		<text transform="matrix(1 0 0 1 160.0625 271.832)" class="st23 st24 st25">C</text>
		<path class="st20" d="M289.8,324.5c0-14-11.3-25.3-25.3-25.3c-14,0-25.3,11.3-25.3,25.3c0,14,11.3,25.3,25.3,25.3
			C278.5,349.8,289.8,338.5,289.8,324.5L289.8,324.5z"/>
		<path class="st27" d="M289.8,324.5c0-14-11.3-25.3-25.3-25.3c-14,0-25.3,11.3-25.3,25.3c0,14,11.3,25.3,25.3,25.3
			C278.5,349.8,289.8,338.5,289.8,324.5L289.8,324.5z"/>
		<text transform="matrix(1 0 0 1 248.5684 330.0137)" class="st23 st24 st25 st28">AV</text>
		<text transform="matrix(1 0 0 1 269.2285 330.0137)" class="st23 st24 st25">B</text>
		<polygon class="st20" points="342.1,355.3 374.4,299.4 309.8,299.4 		"/>
		<polygon class="st26" points="342.1,355.3 374.4,299.4 309.8,299.4 		"/>
		<text transform="matrix(1 0 0 1 324.3809 323.541)" class="st23 st24 st25 st28">AV</text>
		<text transform="matrix(1 0 0 1 345.041 323.541)" class="st23 st24 st25">M</text>
		<polygon class="st20" points="426.1,355 458.1,299.5 394.1,299.5 		"/>
		<g class="st21">
			<defs>
				<rect id="SVGID_9_" x="39" y="51" width="421" height="398.1"/>
			</defs>
			<clipPath id="SVGID_10_">
				<use xlink:href="#SVGID_9_"  style="overflow:visible;"/>
			</clipPath>
			<polygon class="st30" points="426.1,355 458.1,299.5 394.1,299.5 			"/>
		</g>
		<text transform="matrix(1 0 0 1 408.5117 323.541)" class="st23 st24 st25">AL</text>
		<text transform="matrix(1 0 0 1 428.9629 323.541)" class="st23 st24 st25">M</text>
		<path class="st20" d="M193.3,369.7c0-14.2-11.5-25.7-25.7-25.7c-14.2,0-25.7,11.5-25.7,25.7c0,14.2,11.5,25.7,25.7,25.7
			C181.8,395.4,193.3,383.9,193.3,369.7L193.3,369.7z"/>
		<path class="st26" d="M193.3,369.7c0-14.2-11.5-25.7-25.7-25.7c-14.2,0-25.7,11.5-25.7,25.7c0,14.2,11.5,25.7,25.7,25.7
			C181.8,395.4,193.3,383.9,193.3,369.7L193.3,369.7z"/>
		<text transform="matrix(1 0 0 1 151.1641 375.252)" class="st23 st24 st25">DV</text>
		<text transform="matrix(1 0 0 1 172.7363 375.252)" class="st23 st24 st25">A</text>
		<polygon class="st31" points="264.5,387.2 229.3,448.2 299.8,448.2 		"/>
		<g class="st21">
			<defs>
				<rect id="SVGID_11_" x="39" y="51" width="421" height="398.1"/>
			</defs>
			<clipPath id="SVGID_12_">
				<use xlink:href="#SVGID_11_"  style="overflow:visible;"/>
			</clipPath>
			<polygon class="st32" points="264.5,387.2 229.3,448.2 299.8,448.2 			"/>
		</g>
		<text transform="matrix(1 0 0 1 245.623 433.4121)" class="st23 st24 st25">FW</text>
		<text transform="matrix(1 0 0 1 271.2402 433.4121)" class="st23 st24 st25">D</text>
		<polygon class="st31" points="264.5,52.4 236,101.8 293.1,101.8 		"/>
		<g class="st21">
			<defs>
				<rect id="SVGID_13_" x="39" y="51" width="421" height="398.1"/>
			</defs>
			<clipPath id="SVGID_14_">
				<use xlink:href="#SVGID_13_"  style="overflow:visible;"/>
			</clipPath>
			<polygon class="st33" points="264.5,52.4 236,101.8 293.1,101.8 			"/>
		</g>
		<text transform="matrix(1 0 0 1 248.3613 90.8789)" class="st23 st24 st25">RE</text>
		<text transform="matrix(1 0 0 1 269.4355 90.8789)" class="st23 st24 st25">V</text>
		<line class="st34" x1="83" y1="178.1" x2="133" y2="239.6"/>
		<line class="st35" x1="138.4" y1="236" x2="128.4" y2="244.2"/>
		<path class="st34" d="M70.7,199.5c0,72-1.2,170.3,62.3,170.3 M133.6,363.3v12.9 M96.8,144.6c46.9-32.8,99.3-29.7,139.2-1.8"/>
		<line class="st36" x1="240.2" y1="138" x2="232.8" y2="148.6"/>
		<path class="st34" d="M189.1,162.9h40.5 M230.3,156.5v12.9 M152.3,173.6c-57,39.9-52.4,128.4-9.2,171.6"/>
		<line class="st37" x1="148.1" y1="341.1" x2="139" y2="350.3"/>
		<path class="st34" d="M194.2,144.3C241.7,111,302,103.4,337,138.4"/>
		<line class="st37" x1="342" y1="134.3" x2="332.9" y2="143.5"/>
		<path class="st34" d="M239,169.8c-39.3,10.5-61.5,34-72.5,64.2"/>
		<line class="st38" x1="172.3" y1="236.8" x2="160.1" y2="232.4"/>
		<path class="st34" d="M260,189c-7.4,41.8-7.5,67.1-1.6,100.5"/>
		<line class="st39" x1="264.9" y1="289" x2="252.1" y2="291.3"/>
		<path class="st34" d="M290.1,156.1c17.4-4.7,28.7-4.6,37.8-2.1"/>
		<line class="st40" x1="330.3" y1="147.8" x2="326.9" y2="160.4"/>
		<line class="st41" x1="264.5" y1="136.5" x2="264.5" y2="102.3"/>
		<line class="st42" x1="162.3" y1="205.2" x2="159.3" y2="228.9"/>
		
			<rect x="157.6" y="194.6" transform="matrix(0.1241 -0.9923 0.9923 0.1241 -55.6362 336.8394)" class="st43" width="10.7" height="10.7"/>
		
			<rect x="153.4" y="228.9" transform="matrix(0.124 -0.9923 0.9923 0.124 -93.3911 362.6114)" class="st43" width="10.7" height="10.7"/>
		<line class="st44" x1="335.3" y1="162.9" x2="300" y2="162.9"/>
		<polygon class="st29" points="293.7,162.9 299.4,166.1 299.4,162.9 299.4,159.7 		"/>
		<polygon class="st45" points="293.7,162.9 299.4,166.1 299.4,162.9 299.4,159.7 		"/>
		<path class="st44" d="M343,181.4c-37.5,37.5-44.6,70.5-63.2,110.3"/>
		<polygon class="st29" points="277.1,297.5 282.5,293.6 279.6,292.3 276.7,290.9 		"/>
		<polygon class="st46" points="277.1,297.5 282.5,293.6 279.6,292.3 276.7,290.9 		"/>
		<path class="st44" d="M336.2,169.7c-67.6,18.1-91.4,63.8-148.6,84.7"/>
		<polygon class="st29" points="181.6,256.5 188.1,257.5 187,254.6 185.9,251.6 		"/>
		<polygon class="st47" points="181.6,256.5 188.1,257.5 187,254.6 185.9,251.6 		"/>
		<path class="st44" d="M169.5,245.1c22.4-32,35.6-54.5,62.8-67.2"/>
		<polygon class="st29" points="238.1,175.3 231.5,174.8 232.8,177.7 234.2,180.6 		"/>
		<polygon class="st46" points="238.1,175.3 231.5,174.8 232.8,177.7 234.2,180.6 		"/>
		<path class="st48" d="M183.5,242.1c20.5-17.2,35.2-33.4,54.2-52.4"/>
		
			<rect x="174.4" y="240.3" transform="matrix(0.766 -0.6428 0.6428 0.766 -115.7526 172.8503)" class="st49" width="10.2" height="10.2"/>
		
			<rect x="236.2" y="181.1" transform="matrix(0.7071 -0.7071 0.7071 0.7071 -60.9608 225.1484)" class="st48" width="10.2" height="10.2"/>
		<line class="st48" x1="159.3" y1="303.5" x2="162.9" y2="332.3"/>
		
			<rect x="153.6" y="293.3" transform="matrix(0.9923 -0.124 0.124 0.9923 -35.7896 21.9852)" class="st50" width="10.2" height="10.2"/>
		
			<rect x="158.4" y="332.2" transform="matrix(0.9923 -0.124 0.124 0.9923 -40.5795 22.8906)" class="st50" width="10.2" height="10.2"/>
		<line class="st44" x1="177.6" y1="278.5" x2="232.5" y2="307.5"/>
		<polygon class="st29" points="238.2,310.5 234.6,305 233.1,307.8 231.6,310.7 		"/>
		<polygon class="st51" points="238.2,310.5 234.6,305 233.1,307.8 231.6,310.7 		"/>
		<path class="st44" d="M180.5,264.1c70.2-6.1,97.2-52.8,150.4-83.5"/>
		<polygon class="st29" points="336.4,177.4 329.8,177.5 331.4,180.3 333,183 		"/>
		<polygon class="st52" points="336.4,177.4 329.8,177.5 331.4,180.3 333,183 		"/>
		<path class="st34" d="M266.9,297.6c3.7-42.1,3.6-66.3,0.7-99.9"/>
		<line class="st53" x1="261.1" y1="197.6" x2="274" y2="196.5"/>
		<path class="st34" d="M283.6,305.4c37.6-37.6,38.2-73.8,60.5-112.4"/>
		<line class="st54" x1="338.8" y1="189.2" x2="350.1" y2="195.7"/>
		<line class="st41" x1="264.5" y1="351.5" x2="264.5" y2="386.3"/>
		<line class="st34" x1="321.1" y1="319.8" x2="299.9" y2="321.5"/>
		<line class="st55" x1="299.8" y1="328" x2="298.7" y2="315.2"/>
		<path class="st48" d="M375.7,318h17 M365.5,323.1h10.2v-10.2h-10.2V323.1z M402.9,312.9h-10.2v10.2h10.2V312.9z"/>
		<path class="st34" d="M328.1,332c-76,76-79.2,28.6-149.1-41.4"/>
		<line class="st37" x1="173.9" y1="294.7" x2="183.1" y2="285.6"/>
		<line class="st42" x1="345.9" y1="287.2" x2="356.8" y2="200.6"/>
		
			<rect x="340" y="287.2" transform="matrix(0.124 -0.9923 0.9923 0.124 12.189 598.8745)" class="st43" width="10.7" height="10.7"/>
		
			<rect x="352.1" y="190" transform="matrix(0.124 -0.9923 0.9923 0.124 119.3206 525.7614)" class="st43" width="10.7" height="10.7"/>
		<line class="st34" x1="418.2" y1="299.1" x2="374.9" y2="195"/>
		<line class="st56" x1="368.6" y1="196.8" x2="380.6" y2="191.9"/>
		<path class="st34" d="M412.3,331.9c-83.6,83.6-208.3,69.9-245.8-33.2"/>
		<line class="st38" x1="160.1" y1="300.3" x2="172.3" y2="295.8"/>
		<path class="st34" d="M160.8,344.4c-5.5-20.6-18.4-32.4-15.1-44.8"/>
		<line class="st40" x1="139.7" y1="297.3" x2="152.2" y2="300.6"/>
		<path class="st34" d="M178.7,346c28.9-62,45.8-97.1,71.1-151.3"/>
		<line class="st57" x1="244.2" y1="191.3" x2="255.9" y2="196.8"/>
		<path class="st34" d="M193.7,367.5c22.9-2,42.2-2,50.5-13.9"/>
		<line class="st36" x1="239.3" y1="349.3" x2="249.9" y2="356.7"/>
		<line class="st48" x1="201.9" y1="353.7" x2="229.5" y2="340.8"/>
		
			<rect x="192.1" y="350.8" transform="matrix(0.9062 -0.4229 0.4229 0.9062 -132.0038 116.7951)" class="st58" width="10.2" height="10.2"/>
		
			<rect x="229" y="333.6" transform="matrix(0.9062 -0.4229 0.4229 0.9062 -121.2569 130.8012)" class="st58" width="10.2" height="10.2"/>
		<path class="st44" d="M129.6,259.6c-33.9-9.1-38.8-41.3-47.7-65.7"/>
		<polygon class="st29" points="79.7,187.9 78.7,194.4 81.7,193.3 84.7,192.2 		"/>
		<polygon class="st47" points="79.7,187.9 78.7,194.4 81.7,193.3 84.7,192.2 		"/>
	</g>
</g>
</svg>
