<?xml version="1.0" encoding="UTF-8" standalone="no"?>
<!-- Created with Inkscape (http://www.inkscape.org/) -->

<svg
   xmlns:dc="http://purl.org/dc/elements/1.1/"
   xmlns:cc="http://creativecommons.org/ns#"
   xmlns:rdf="http://www.w3.org/1999/02/22-rdf-syntax-ns#"
   xmlns:svg="http://www.w3.org/2000/svg"
   xmlns="http://www.w3.org/2000/svg"
   xmlns:sodipodi="http://sodipodi.sourceforge.net/DTD/sodipodi-0.dtd"
   xmlns:inkscape="http://www.inkscape.org/namespaces/inkscape"
   width="400pt"
   height="500pt"
   viewBox="0 0 141.11111 176.38889"
   version="1.1"
   id="svg8"
   inkscape:version="0.92.3 (2405546, 2018-03-11)"
   sodipodi:docname="gcp.svg">
  <defs
     id="defs2" />
  <sodipodi:namedview
     id="base"
     pagecolor="#ffffff"
     bordercolor="#666666"
     borderopacity="1.0"
     inkscape:pageopacity="0.0"
     inkscape:pageshadow="2"
     inkscape:zoom="0.7"
     inkscape:cx="-22.684916"
     inkscape:cy="370.08142"
     inkscape:document-units="mm"
     inkscape:current-layer="layer1"
     showgrid="false"
     units="pt"
     showguides="true"
     inkscape:guide-bbox="true"
     inkscape:window-width="1920"
     inkscape:window-height="1001"
     inkscape:window-x="-9"
     inkscape:window-y="1271"
     inkscape:window-maximized="1">
    <sodipodi:guide
       position="34.206846,131.15774"
       orientation="1,0"
       id="guide5000"
       inkscape:locked="false" />
  </sodipodi:namedview>
  <metadata
     id="metadata5">
    <rdf:RDF>
      <cc:Work
         rdf:about="">
        <dc:format>image/svg+xml</dc:format>
        <dc:type
           rdf:resource="http://purl.org/dc/dcmitype/StillImage" />
        <dc:title></dc:title>
      </cc:Work>
    </rdf:RDF>
  </metadata>
  <g
     inkscape:label="Ebene 1"
     inkscape:groupmode="layer"
     id="layer1"
     transform="translate(0,-120.61112)">
    <rect
       style="fill:none;fill-opacity:1;stroke:#000000;stroke-width:1.05341911;stroke-miterlimit:4;stroke-dasharray:none;stroke-opacity:1"
       id="rect815"
       width="129.03777"
       height="165.38641"
       x="6.0366726"
       y="126.50876"
       ry="6.9490075" />
    <path
       style="fill:none;stroke:#000000;stroke-width:0.80000001;stroke-linecap:butt;stroke-linejoin:miter;stroke-miterlimit:4;stroke-dasharray:none;stroke-opacity:1"
       d="M 5.9431477,148.26452 H 135.16796"
       id="path817"
       inkscape:connector-curvature="0" />
    <text
       xml:space="preserve"
       style="font-style:normal;font-weight:normal;font-size:10.58333302px;line-height:1.25;font-family:sans-serif;text-align:start;letter-spacing:0px;word-spacing:0px;text-anchor:start;fill:#000000;fill-opacity:1;stroke:none;stroke-width:0.26458332"
       x="14.08193"
       y="141.47208"
       id="text821"><tspan
         sodipodi:role="line"
         id="tspan819"
         x="14.08193"
         y="141.47208"
         style="text-align:start;text-anchor:start;stroke-width:0.26458332">GCP Virtuelle Instanz</tspan></text>
    <g
       id="g4587"
       transform="matrix(0.03358997,0,0,0.03358997,13.528005,209.24592)">
      <g
         id="g4530">
	<g
   id="g4528">
		<path
   id="path4526"
   d="M 256,0 C 153.755,0 70.573,83.182 70.573,185.426 c 0,126.888 165.939,313.167 173.004,321.035 6.636,7.391 18.222,7.378 24.846,0 7.065,-7.868 173.004,-194.147 173.004,-321.035 C 441.425,83.182 358.244,0 256,0 Z m 0,278.719 c -51.442,0 -93.292,-41.851 -93.292,-93.293 0,-51.442 41.851,-93.292 93.292,-93.292 51.441,0 93.291,41.851 93.291,93.293 0,51.442 -41.85,93.292 -93.291,93.292 z"
   inkscape:connector-curvature="0"
   style="fill:#1f1f1f" />

	</g>

</g>
      <g
         id="g4532">
</g>
      <g
         id="g4534">
</g>
      <g
         id="g4536">
</g>
      <g
         id="g4538">
</g>
      <g
         id="g4540">
</g>
      <g
         id="g4542">
</g>
      <g
         id="g4544">
</g>
      <g
         id="g4546">
</g>
      <g
         id="g4548">
</g>
      <g
         id="g4550">
</g>
      <g
         id="g4552">
</g>
      <g
         id="g4554">
</g>
      <g
         id="g4556">
</g>
      <g
         id="g4558">
</g>
      <g
         id="g4560">
</g>
    </g>
    <g
       id="surface1"
       transform="matrix(0.02082536,0,0,0.02082536,13.944853,158.28659)">
      <path
         id="path4775"
         style="fill:#1f1f1f;fill-opacity:1;fill-rule:nonzero;stroke:#1f1f1f"
         d="M 637.5,71.0625 V 0 h -25 v 63.5 c -4.14063,-0.632812 -8.3125,-0.960938 -12.5,-1 H 575 V 0 H 550 V 62.5 H 512.5 V 0 h -25 V 62.5 H 450 V 0 H 425 V 62.5 H 387.5 V 0 h -25 V 62.5 H 325 V 0 H 300 V 62.5 H 262.5 V 0 h -25 V 62.5 H 200 V 0 h -25 v 62.5 h -25 c -4.1875,0.03906 -8.35938,0.367188 -12.5,1 V 0 h -25 V 71.0625 C 94.355469,79.730469 79.730469,94.355469 71.0625,112.5 H 0 v 25 h 63.5 c -0.632812,4.14062 -0.960938,8.3125 -1,12.5 v 25 H 0 v 25 h 62.5 v 37.5 H 0 v 25 H 62.5 V 300 H 0 v 25 h 62.5 v 37.5 H 0 v 25 H 62.5 V 425 H 0 v 25 h 62.5 v 37.5 H 0 v 25 H 62.5 V 550 H 0 v 25 h 62.5 v 25 c 0.03906,4.1875 0.367188,8.35937 1,12.5 H 0 v 25 h 71.0625 c 8.667969,18.14453 23.292969,32.76953 41.4375,41.4375 V 750 h 25 v -63.5 c 4.14062,0.63281 8.3125,0.96094 12.5,1 h 25 V 750 h 25 v -62.5 h 37.5 V 750 h 25 V 687.5 H 300 V 750 h 25 v -62.5 h 37.5 V 750 h 25 V 687.5 H 425 V 750 h 25 v -62.5 h 37.5 V 750 h 25 V 687.5 H 550 V 750 h 25 v -62.5 h 25 c 4.1875,-0.0391 8.35937,-0.36719 12.5,-1 V 750 h 25 v -71.0625 c 18.14453,-8.66797 32.76953,-23.29297 41.4375,-41.4375 H 750 v -25 h -63.5 c 0.63281,-4.14063 0.96094,-8.3125 1,-12.5 V 575 H 750 V 550 H 687.5 V 512.5 H 750 v -25 H 687.5 V 450 H 750 V 425 H 687.5 V 387.5 H 750 v -25 H 687.5 V 325 H 750 V 300 H 687.5 V 262.5 H 750 v -25 H 687.5 V 200 H 750 v -25 h -62.5 v -25 c -0.0391,-4.1875 -0.36719,-8.35938 -1,-12.5 H 750 v -25 H 678.9375 C 670.26953,94.355469 655.64453,79.730469 637.5,71.0625 Z M 662.5,600 c -0.043,34.5 -28,62.45703 -62.5,62.5 H 150 C 115.5,662.457 87.542969,634.5 87.5,600 V 150 c 0.04297,-34.5 28,-62.457031 62.5,-62.5 h 450 c 34.5,0.04297 62.45703,28 62.5,62.5 z m 0,0"
         inkscape:connector-curvature="0" />
      <path
         id="path4777"
         style="fill:#1f1f1f;fill-opacity:1;fill-rule:nonzero;stroke:#1f1f1f"
         d="m 587.5,125 h -425 c -20.70703,0 -37.5,16.79297 -37.5,37.5 v 425 c 0,20.70703 16.79297,37.5 37.5,37.5 h 425 c 20.70703,0 37.5,-16.79297 37.5,-37.5 v -425 C 625,141.79297 608.20703,125 587.5,125 Z M 600,587.5 c 0,6.90625 -5.59375,12.5 -12.5,12.5 h -425 c -6.90625,0 -12.5,-5.59375 -12.5,-12.5 v -425 c 0,-6.90625 5.59375,-12.5 12.5,-12.5 h 425 c 6.90625,0 12.5,5.59375 12.5,12.5 z m 0,0"
         inkscape:connector-curvature="0" />
      <path
         id="path4779"
         style="fill:#1f1f1f;fill-opacity:1;fill-rule:nonzero;stroke:#1f1f1f"
         d="m 550,175 h 25 v 25 h -25 z m 0,0"
         inkscape:connector-curvature="0" />
      <path
         id="path4781"
         style="fill:#1f1f1f;fill-opacity:1;fill-rule:nonzero;stroke:#1f1f1f"
         d="m 175,550 h 25 v 25 h -25 z m 0,0"
         inkscape:connector-curvature="0" />
      <path
         id="path4783"
         style="fill:#1f1f1f;fill-opacity:1;fill-rule:nonzero;stroke:#1f1f1f"
         d="m 175,200 v 37.5 h 25 V 200 h 37.5 V 175 H 200 c -13.80859,0 -25,11.19141 -25,25 z m 0,0"
         inkscape:connector-curvature="0" />
      <path
         id="path4785"
         style="fill:#1f1f1f;fill-opacity:1;fill-rule:nonzero;stroke:#1f1f1f"
         d="m 550,550 h -37.5 v 25 H 575 v -62.5 h -25 z m 0,0"
         inkscape:connector-curvature="0" />
    </g>
    <g
       id="g4858"
       transform="matrix(0.07014108,0,0,0.07014108,12.757444,182.48582)">
      <path
         id="path4803"
         d="M 259.809,84.362 H 2.5 c -1.381,0 -2.5,1.119 -2.5,2.5 v 24.5 c 0,1.381 1.119,2.5 2.5,2.5 h 10.761 c 3.033,0 5.5,2.468 5.5,5.5 0,3.032 -2.467,5.5 -5.5,5.5 H 2.5 c -1.381,0 -2.5,1.119 -2.5,2.5 v 9.502 c 0,1.381 1.119,2.5 2.5,2.5 h 10.761 c 3.033,0 5.5,2.468 5.5,5.5 0,3.032 -2.467,5.5 -5.5,5.5 H 2.5 c -1.381,0 -2.5,1.119 -2.5,2.5 v 11.998 c 0,1.381 1.119,2.5 2.5,2.5 v 10.584 h 122.827 v -10.584 h 11.654 v 10.584 h 122.827 v -10.584 c 1.381,0 2.5,-1.119 2.5,-2.5 v -11.998 c 0,-1.381 -1.119,-2.5 -2.5,-2.5 h -10.761 c -3.033,0 -5.5,-2.468 -5.5,-5.5 0,-3.032 2.467,-5.5 5.5,-5.5 h 10.761 c 1.381,0 2.5,-1.119 2.5,-2.5 v -9.502 c 0,-1.381 -1.119,-2.5 -2.5,-2.5 h -10.761 c -3.033,0 -5.5,-2.468 -5.5,-5.5 0,-3.032 2.467,-5.5 5.5,-5.5 h 10.761 c 1.381,0 2.5,-1.119 2.5,-2.5 v -24.5 c 0.001,-1.381 -1.119,-2.5 -2.499,-2.5 z m -241.83,89.5 h -6.123 v -9 h 6.123 z m 226.351,-9 h 6.125 v 9 h -6.125 z m -214.101,9 h -6.125 v -9 h 6.125 z m 12.249,0 h -6.124 v -9 h 6.124 z m 12.249,0 h -6.125 v -9 h 6.125 z m 12.249,0 h -6.125 v -9 h 6.125 z m 12.248,0 H 73.1 v -9 h 6.124 z m 12.249,0 h -6.124 v -9 h 6.124 z m 12.249,0 h -6.124 v -9 h 6.124 z m 12.249,0 h -6.124 v -9 h 6.124 z M 36.945,145.529 v -42.917 h 188.418 v 42.917 z m 115.519,28.333 h -6.125 v -9 h 6.125 z m 12.249,0 h -6.125 v -9 h 6.125 z m 12.249,0 h -6.125 v -9 h 6.125 z m 12.249,0 h -6.125 v -9 h 6.125 z m 12.249,0 h -6.125 v -9 h 6.125 z m 12.249,0 h -6.125 v -9 h 6.125 z m 12.248,0 h -6.125 v -9 h 6.125 z m 12.248,0 h -6.123 v -9 h 6.123 z m -60.432,-49.566 h 10.592 v 15.043 h -4.698 v -3.297 c -2.336,2.335 -5.056,3.503 -8.161,3.503 -1.923,0 -3.729,-0.385 -5.419,-1.154 -1.69,-0.768 -3.16,-1.826 -4.41,-3.173 -1.251,-1.347 -2.239,-2.933 -2.968,-4.761 -0.729,-1.827 -1.092,-3.798 -1.092,-5.914 0,-2.006 0.363,-3.895 1.092,-5.667 0.729,-1.773 1.731,-3.324 3.01,-4.657 1.277,-1.332 2.781,-2.391 4.512,-3.174 1.731,-0.783 3.613,-1.175 5.646,-1.175 2.748,0 5.104,0.577 7.068,1.731 1.965,1.154 3.441,2.707 4.431,4.657 l -4.245,3.132 c -0.742,-1.455 -1.779,-2.568 -3.111,-3.338 -1.333,-0.769 -2.782,-1.154 -4.348,-1.154 -1.236,0 -2.371,0.262 -3.4,0.783 -1.031,0.522 -1.91,1.236 -2.639,2.144 -0.727,0.906 -1.291,1.951 -1.689,3.132 -0.398,1.182 -0.598,2.432 -0.598,3.751 0,1.374 0.22,2.658 0.66,3.853 0.439,1.195 1.043,2.232 1.813,3.111 0.77,0.88 1.684,1.573 2.741,2.081 1.058,0.509 2.205,0.763 3.441,0.763 2.829,0 5.385,-1.332 7.666,-3.998 v -2.061 h -5.894 z m 33.589,0.041 c 1.374,-0.604 2.417,-1.531 3.132,-2.782 0.715,-1.25 1.072,-2.589 1.072,-4.019 0,-0.906 -0.158,-1.806 -0.475,-2.699 -0.315,-0.893 -0.762,-1.689 -1.339,-2.391 -0.577,-0.7 -1.278,-1.271 -2.103,-1.71 -0.824,-0.439 -1.744,-0.66 -2.761,-0.66 h -15.661 v 29.263 h 14.137 c 1.291,0 2.506,-0.165 3.646,-0.494 1.141,-0.33 2.144,-0.811 3.01,-1.443 0.865,-0.631 1.545,-1.414 2.039,-2.349 0.495,-0.934 0.742,-2.02 0.742,-3.256 0,-1.923 -0.488,-3.524 -1.463,-4.802 -0.975,-1.277 -2.3,-2.164 -3.976,-2.658 z m -12.446,-9.398 h 7.83 c 0.907,0 1.67,0.33 2.287,0.989 0.619,0.66 0.928,1.553 0.928,2.68 0,1.153 -0.336,2.061 -1.01,2.72 -0.674,0.659 -1.49,0.989 -2.452,0.989 h -7.583 z m 11.869,17.27 c -0.192,0.468 -0.453,0.872 -0.783,1.216 -0.329,0.344 -0.721,0.611 -1.174,0.804 -0.453,0.192 -0.941,0.288 -1.463,0.288 h -8.449 v -7.707 h 8.737 c 0.495,0 0.948,0.104 1.36,0.31 0.412,0.206 0.769,0.487 1.071,0.845 0.302,0.357 0.542,0.776 0.722,1.257 0.178,0.481 0.268,0.982 0.268,1.504 0,0.521 -0.097,1.016 -0.289,1.483 z"
         inkscape:connector-curvature="0"
         style="fill:#1f1f1f" />
      <g
         id="g4805">
</g>
      <g
         id="g4807">
</g>
      <g
         id="g4809">
</g>
      <g
         id="g4811">
</g>
      <g
         id="g4813">
</g>
      <g
         id="g4815">
</g>
      <g
         id="g4817">
</g>
      <g
         id="g4819">
</g>
      <g
         id="g4821">
</g>
      <g
         id="g4823">
</g>
      <g
         id="g4825">
</g>
      <g
         id="g4827">
</g>
      <g
         id="g4829">
</g>
      <g
         id="g4831">
</g>
      <g
         id="g4833">
</g>
    </g>
    <g
       id="g4916"
       transform="matrix(0.04947024,0,0,0.04947024,14.549027,239.70697)">
      <g
         id="XMLID_91_">
	<path
   d="m 274.659,244.888 c -8.944,-3.663 -12.77,-8.524 -12.4,-15.777 0.381,-8.466 -4.422,-14.667 -6.703,-17.117 1.378,-5.264 5.405,-23.474 0.004,-39.291 -5.804,-16.93 -23.524,-42.787 -41.808,-68.204 C 206.267,94.061 205.913,82.715 205.504,69.577 205.112,57.046 204.67,42.842 197.682,27.052 190.084,9.859 174.838,0 155.851,0 144.556,0 132.962,3.53 124.04,9.684 c -18.27,12.609 -15.855,40.1 -14.257,58.291 0.219,2.491 0.425,4.844 0.545,6.853 1.064,17.816 0.096,27.206 -1.17,30.06 -0.819,1.865 -4.851,7.173 -9.118,12.793 -4.413,5.812 -9.416,12.4 -13.517,18.539 -4.893,7.387 -8.843,18.678 -12.663,29.597 -2.795,7.99 -5.435,15.537 -8.005,20.047 -4.871,8.676 -3.659,16.766 -2.647,20.505 -1.844,1.281 -4.508,3.803 -6.757,8.557 -2.718,5.8 -8.233,8.917 -19.701,11.122 -5.27,1.078 -8.904,3.294 -10.804,6.586 -2.765,4.791 -1.259,10.811 0.115,14.925 2.03,6.048 0.765,9.876 -1.535,16.826 -0.53,1.604 -1.131,3.42 -1.74,5.423 -0.959,3.161 -0.613,6.035 1.026,8.542 4.331,6.621 16.969,8.956 29.979,10.492 7.768,0.922 16.27,4.029 24.493,7.035 8.057,2.944 16.388,5.989 23.961,6.913 1.151,0.145 2.291,0.218 3.39,0.218 11.434,0 16.6,-7.587 18.238,-10.704 4.107,-0.838 18.272,-3.522 32.871,-3.882 14.576,-0.416 28.679,2.462 32.674,3.357 1.256,2.404 4.567,7.895 9.845,10.724 2.901,1.586 6.938,2.495 11.073,2.495 10e-4,0 0,0 10e-4,0 4.416,0 12.817,-1.044 19.466,-8.039 6.632,-7.028 23.202,-16 35.302,-22.551 2.7,-1.462 5.226,-2.83 7.441,-4.065 6.797,-3.768 10.506,-9.152 10.175,-14.771 -0.276,-4.667 -3.365,-8.761 -8.062,-10.684 z m -150.47,-1.353 c -0.846,-5.96 -8.513,-11.871 -17.392,-18.715 -7.26,-5.597 -15.489,-11.94 -17.756,-17.312 -4.685,-11.082 -0.992,-30.568 5.447,-40.602 3.182,-5.024 5.781,-12.643 8.295,-20.011 2.714,-7.956 5.521,-16.182 8.66,-19.783 4.971,-5.622 9.565,-16.561 10.379,-25.182 4.655,4.444 11.876,10.083 18.547,10.083 1.027,0 2.024,-0.134 2.977,-0.403 4.564,-1.318 11.277,-5.197 17.769,-8.947 5.597,-3.234 12.499,-7.222 15.096,-7.585 4.453,6.394 30.328,63.655 32.972,82.044 2.092,14.55 -0.118,26.578 -1.229,31.289 -0.894,-0.122 -1.96,-0.221 -3.08,-0.221 -7.207,0 -9.115,3.934 -9.612,6.283 -1.278,6.103 -1.413,25.618 -1.427,30.003 -2.606,3.311 -15.785,18.903 -34.706,21.706 -7.707,1.12 -14.904,1.688 -21.39,1.688 -5.544,0 -9.082,-0.428 -10.551,-0.651 L 117.68,256.34 c 3.749,-1.851 7.497,-5.757 6.509,-12.805 z M 136.254,64.149 c -0.297,0.128 -0.589,0.265 -0.876,0.411 -0.029,-0.644 -0.096,-1.297 -0.199,-1.952 -1.038,-5.975 -5,-10.312 -9.419,-10.312 -0.327,0 -0.656,0.025 -1.017,0.08 -2.629,0.438 -4.691,2.413 -5.821,5.213 0.991,-6.144 4.472,-10.693 8.602,-10.693 4.85,0 8.947,6.536 8.947,14.272 0,0.975 -0.071,1.945 -0.217,2.981 z m 37.686,4.607 c 0.444,-1.414 0.684,-2.944 0.684,-4.532 0,-7.014 -4.45,-12.509 -10.131,-12.509 -5.552,0 -10.069,5.611 -10.069,12.509 0,0.47 0.023,0.941 0.067,1.411 -0.294,-0.113 -0.581,-0.223 -0.861,-0.329 -0.639,-1.935 -0.962,-3.954 -0.962,-6.015 0,-8.387 5.36,-15.211 11.95,-15.211 6.589,0 11.95,6.824 11.95,15.211 0,3.489 -0.963,6.819 -2.628,9.465 z m -4.859,16.324 c -0.095,0.424 -0.297,0.612 -2.531,1.774 -1.128,0.587 -2.532,1.318 -4.289,2.388 l -1.174,0.711 c -4.718,2.86 -15.765,9.559 -18.764,9.952 -2.037,0.274 -3.297,-0.516 -6.13,-2.441 -0.639,-0.435 -1.319,-0.897 -2.044,-1.362 -5.107,-3.351 -8.392,-7.042 -8.763,-8.485 1.665,-1.287 5.792,-4.508 7.905,-6.415 4.289,-3.988 8.605,-6.668 10.741,-6.668 0.113,0 0.215,0.008 0.321,0.028 2.51,0.443 8.701,2.914 13.223,4.718 2.09,0.834 3.895,1.554 5.165,2.01 4.001,1.374 6.087,3.132 6.34,3.79 z m 35.947,186.37 c 2.257,-10.181 4.857,-24.031 4.436,-32.196 -0.097,-1.855 -0.261,-3.874 -0.42,-5.826 -0.297,-3.65 -0.738,-9.075 -0.283,-10.684 0.09,-0.042 0.19,-0.078 0.301,-0.109 0.019,4.668 1.033,13.979 8.479,17.226 2.219,0.968 4.755,1.458 7.537,1.458 7.459,0 15.735,-3.659 19.125,-7.049 1.996,-1.996 3.675,-4.438 4.851,-6.372 0.257,0.753 0.415,1.737 0.332,3.005 -0.443,6.885 2.903,16.019 9.271,19.385 l 0.927,0.487 c 2.268,1.19 8.292,4.353 8.389,5.853 -0.001,0.001 -0.051,0.177 -0.387,0.489 -1.509,1.379 -6.82,4.091 -11.956,6.714 -9.111,4.652 -19.438,9.925 -24.076,14.803 -6.53,6.872 -13.916,11.488 -18.376,11.488 -0.537,0 -1.026,-0.068 -1.461,-0.206 -4.844,-1.51 -8.831,-8.499 -6.689,-18.466 z M 39.917,245.477 c -0.494,-2.312 -0.884,-4.137 -0.465,-5.905 0.304,-1.31 6.771,-2.714 9.533,-3.313 3.883,-0.843 7.899,-1.714 10.525,-3.308 3.551,-2.151 5.474,-6.118 7.17,-9.618 1.228,-2.531 2.496,-5.148 4.005,-6.007 0.085,-0.05 0.215,-0.108 0.463,-0.108 2.827,0 8.759,5.943 12.177,11.262 0.867,1.341 2.473,4.028 4.331,7.139 5.557,9.298 13.166,22.033 17.14,26.301 3.581,3.837 9.378,11.214 7.952,17.541 -1.044,4.909 -6.602,8.901 -7.913,9.784 -0.476,0.108 -1.065,0.163 -1.758,0.163 -7.606,0 -22.662,-6.328 -30.751,-9.728 l -1.197,-0.503 c -4.517,-1.894 -11.891,-3.087 -19.022,-4.241 -5.674,-0.919 -13.444,-2.176 -14.732,-3.312 -1.044,-1.171 0.167,-4.978 1.235,-8.337 0.769,-2.414 1.563,-4.91 1.998,-7.523 0.617,-4.168 -0.109,-7.561 -0.691,-10.287 z"
   id="XMLID_92_"
   inkscape:connector-curvature="0"
   style="fill:#1f1f1f" />

</g>
      <g
         id="g4862">
</g>
      <g
         id="g4864">
</g>
      <g
         id="g4866">
</g>
      <g
         id="g4868">
</g>
      <g
         id="g4870">
</g>
      <g
         id="g4872">
</g>
      <g
         id="g4874">
</g>
      <g
         id="g4876">
</g>
      <g
         id="g4878">
</g>
      <g
         id="g4880">
</g>
      <g
         id="g4882">
</g>
      <g
         id="g4884">
</g>
      <g
         id="g4886">
</g>
      <g
         id="g4888">
</g>
      <g
         id="g4890">
</g>
    </g>
    <g
       id="g4976"
       transform="matrix(0.85422617,0,0,0.85422617,15.769866,269.01356)">
      <g
         id="g4920">
	<path
   id="path4918"
   d="M 14.982,7 C 14.736,3.256 11.744,0.263 8,0.017 V 0 H 7.5 7 V 0.017 C 3.256,0.263 0.263,3.256 0.017,7 H 0 V 7.5 8 H 0.017 C 0.263,11.744 3.256,14.736 7,14.982 V 15 H 7.5 8 V 14.982 C 11.744,14.736 14.736,11.744 14.982,8 H 15 V 7.5 7 Z M 4.695,1.635 C 4.212,2.277 3.811,3.082 3.519,4 H 2.021 C 2.673,2.983 3.599,2.16 4.695,1.635 Z M 1.498,5 H 3.256 C 3.122,5.632 3.037,6.303 3.01,7 H 1.019 C 1.072,6.296 1.238,5.623 1.498,5 Z M 1.019,8 H 3.01 c 0.027,0.697 0.112,1.368 0.246,2 H 1.498 C 1.238,9.377 1.072,8.704 1.019,8 Z m 1.002,3 H 3.518 C 3.81,11.918 4.211,12.723 4.695,13.365 3.599,12.84 2.673,12.018 2.021,11 Z M 7,13.936 C 5.972,13.661 5.087,12.557 4.55,11 H 7 Z M 7,10 H 4.269 C 4.128,9.377 4.039,8.704 4.01,8 H 7 Z M 7,7 H 4.01 C 4.039,6.296 4.128,5.623 4.269,5 H 7 Z M 7,4 H 4.55 C 5.087,2.443 5.972,1.339 7,1.065 Z m 5.979,0 H 11.483 C 11.19,3.082 10.79,2.277 10.305,1.635 11.4,2.16 12.327,2.983 12.979,4 Z M 8,1.065 C 9.027,1.339 9.913,2.443 10.45,4 H 8 Z M 8,5 h 2.73 c 0.142,0.623 0.229,1.296 0.26,2 H 8 Z m 0,3 h 2.99 c -0.029,0.704 -0.118,1.377 -0.26,2 H 8 Z m 0,5.936 V 11 h 2.45 C 9.913,12.557 9.027,13.661 8,13.936 Z m 2.305,-0.571 C 10.788,12.722 11.19,11.918 11.483,11 h 1.496 c -0.652,1.018 -1.579,1.84 -2.674,2.365 z M 13.502,10 H 11.744 C 11.878,9.368 11.963,8.697 11.99,8 h 1.99 c -0.052,0.704 -0.218,1.377 -0.478,2 z M 11.99,7 C 11.963,6.303 11.878,5.632 11.744,5 h 1.758 c 0.26,0.623 0.426,1.296 0.479,2 z"
   inkscape:connector-curvature="0"
   style="fill:#1f1f1f" />

</g>
      <g
         id="g4922">
</g>
      <g
         id="g4924">
</g>
      <g
         id="g4926">
</g>
      <g
         id="g4928">
</g>
      <g
         id="g4930">
</g>
      <g
         id="g4932">
</g>
      <g
         id="g4934">
</g>
      <g
         id="g4936">
</g>
      <g
         id="g4938">
</g>
      <g
         id="g4940">
</g>
      <g
         id="g4942">
</g>
      <g
         id="g4944">
</g>
      <g
         id="g4946">
</g>
      <g
         id="g4948">
</g>
      <g
         id="g4950">
</g>
    </g>
    <text
       xml:space="preserve"
       style="font-style:normal;font-weight:normal;font-size:10.58333302px;line-height:1.25;font-family:sans-serif;letter-spacing:0px;word-spacing:0px;fill:#000000;fill-opacity:1;stroke:none;stroke-width:0.26458332"
       x="34.66655"
       y="168.64922"
       id="text4980"><tspan
         sodipodi:role="line"
         id="tspan4978"
         x="34.66655"
         y="168.64922"
         style="font-size:7.05555534px;stroke-width:0.26458332">4 vCPUs - Intel XEON</tspan></text>
    <text
       xml:space="preserve"
       style="font-style:normal;font-weight:normal;font-size:10.58333302px;line-height:1.25;font-family:sans-serif;letter-spacing:0px;word-spacing:0px;fill:#000000;fill-opacity:1;stroke:none;stroke-width:0.26458332"
       x="34.18898"
       y="193.86909"
       id="text4980-6"><tspan
         sodipodi:role="line"
         id="tspan4978-5"
         x="34.18898"
         y="193.86909"
         style="font-size:7.05555534px;stroke-width:0.26458332">12 GB DDR5 RAM</tspan></text>
    <text
       xml:space="preserve"
       style="font-style:normal;font-weight:normal;font-size:10.58333302px;line-height:1.25;font-family:sans-serif;letter-spacing:0px;word-spacing:0px;fill:#000000;fill-opacity:1;stroke:none;stroke-width:0.26458332"
       x="34.437767"
       y="220.8324"
       id="text4980-6-4"><tspan
         sodipodi:role="line"
         id="tspan4978-5-5"
         x="34.437767"
         y="220.8324"
         style="font-size:7.05555534px;stroke-width:0.26458332">Frankfurt, Deutschland</tspan></text>
    <text
       xml:space="preserve"
       style="font-style:normal;font-weight:normal;font-size:10.58333302px;line-height:1.25;font-family:sans-serif;letter-spacing:0px;word-spacing:0px;fill:#000000;fill-opacity:1;stroke:none;stroke-width:0.26458332"
       x="34.082184"
       y="249.73421"
       id="text4980-6-4-3"><tspan
         sodipodi:role="line"
         id="tspan4978-5-5-4"
         x="34.082184"
         y="249.73421"
         style="font-size:7.05555534px;stroke-width:0.26458332">Ubuntu 18.04 LTS</tspan></text>
    <text
       xml:space="preserve"
       style="font-style:normal;font-weight:normal;font-size:10.58333302px;line-height:1.25;font-family:sans-serif;letter-spacing:0px;word-spacing:0px;fill:#000000;fill-opacity:1;stroke:none;stroke-width:0.26458332"
       x="34.468525"
       y="277.73697"
       id="text4980-6-4-3-4"><tspan
         sodipodi:role="line"
         id="tspan4978-5-5-4-8"
         x="34.468525"
         y="277.73697"
         style="font-size:7.05555534px;stroke-width:0.26458332">Externe IPv4 Adresse</tspan></text>
  </g>
</svg>
